# xmcd CD database file
#
# Track frame offsets:
#	150
#	12939
#	25662
#	39481
#	55223
#	78595
#	92104
#	105971
#	120556
#	151030
#	198803
#	239606
#	259941
#	288319
#	301992
#
# Disc length: 4268 seconds
#
# Revision: 0
# Processed by: cddbd v1.5.1PL0 Copyright (c) Steve Scherf et al.
# Submitted via: CDex 1.51
#
DISCID=b610aa0f
DTITLE=Various Artist - IN THE MOOD FOR JAZZ
DYEAR=1900
DGENRE=Jazz
TTITLE0=DON'T BLAME ME
TTITLE1=FOUR HANDS
TTITLE2=MOOSE THE MOOCHE
TTITLE3=THE YUNE OF THE HICKRORY STICK
TTITLE4=ROUND MIDNIGHT
TTITLE5=SCRAPPLE FROM THE APPLE
TTITLE6=A NIGHT IN TUNISIA
TTITLE7=BIRD OF PARADISE
TTITLE8=ROCK YOUR SOUL
TTITLE9=MY FAVOURIT THINGS
TTITLE10=BLUE TRAIN
TTITLE11=SONNY MOON FOR TWO
TTITLE12=BIRD HOUSE
TTITLE13=ORNITHOLOGY
TTITLE14=BOWING BOWING
EXTD=
EXTT0=
EXTT1=
EXTT2=
EXTT3=
EXTT4=
EXTT5=
EXTT6=
EXTT7=
EXTT8=
EXTT9=
EXTT10=
EXTT11=
EXTT12=
EXTT13=
EXTT14=
PLAYORDER=
